# xmcd
#
# Track frame offsets:
# 150
# 13705
# 27052
# 38242
# 49952
# 60652
# 71807
# 83115
# 98870
# 111967
# 129400
# 142012
# 152450
# 162887
# 173877
# 189062
# 201250
# 212902
# 221432
# 236230
#
# Disc length: 3272 seconds
#
#
# Revision: 1
# Processed by: cddbd v1.5.1PL2 Copyright (c) Steve Scherf et al.
# Submitted via: FreeRIP 2.944 
#
DISCID=1b0cc614
DTITLE=Mensageiro e Mexicano - Raizes Sertanejas
DYEAR=1900
DGENRE=Country
TTITLE0=Estrelinhas do Céu
TTITLE1=Aguenta Coração
TTITLE2=Espinho Cama
TTITLE3=Refúgio de Boêmio
TTITLE4=Preces de Amor
TTITLE5=Sábado Triste
TTITLE6=Meu Primeiro Amor (Lejania)
TTITLE7=Dama da Noite
TTITLE8=Ébrio na Bebida
TTITLE9=Prefídia
TTITLE10=Sonhando Contigo
TTITLE11=Coração de Pedra
TTITLE12=Resto de Beijos
TTITLE13=Triste Surpresa
TTITLE14=No Colo da Noite
TTITLE15=Distante de Quem Ama
TTITLE16=Não Quero Mais o Mundo
TTITLE17=Meu Castigo
TTITLE18=Querida Minha
TTITLE19=A Bituca
EXTD=
EXTT0=
EXTT1=
EXTT2=
EXTT3=
EXTT4=
EXTT5=
EXTT6=
EXTT7=
EXTT8=
EXTT9=
EXTT10=
EXTT11=
EXTT12=
EXTT13=
EXTT14=
EXTT15=
EXTT16=
EXTT17=
EXTT18=
EXTT19=
PLAYORDER=
